<svg preserveAspectRatio="none" overflow="visible" style="display: block;" width="223.167" height="5.33333" viewBox="0 0 223.167 5.33333" fill="none" xmlns="http://www.w3.org/2000/svg">
<path id="Line 101" d="M0 2.66667C0 4.13943 1.19391 5.33333 2.66667 5.33333C4.13943 5.33333 5.33333 4.13943 5.33333 2.66667C5.33333 1.19391 4.13943 0 2.66667 0C1.19391 0 0 1.19391 0 2.66667ZM222.667 3.16667C222.943 3.16667 223.167 2.94281 223.167 2.66667C223.167 2.39052 222.943 2.16667 222.667 2.16667V2.66667V3.16667ZM4.63095 3.16667C4.90709 3.16667 5.13095 2.94281 5.13095 2.66667C5.13095 2.39052 4.90709 2.16667 4.63095 2.16667V2.66667V3.16667ZM8.55952 2.16667C8.28338 2.16667 8.05952 2.39052 8.05952 2.66667C8.05952 2.94281 8.28338 3.16667 8.55952 3.16667V2.66667V2.16667ZM12.4881 3.16667C12.7642 3.16667 12.9881 2.94281 12.9881 2.66667C12.9881 2.39052 12.7642 2.16667 12.4881 2.16667V2.66667V3.16667ZM16.4167 2.16667C16.1405 2.16667 15.9167 2.39052 15.9167 2.66667C15.9167 2.94281 16.1405 3.16667 16.4167 3.16667V2.66667V2.16667ZM20.3452 3.16667C20.6214 3.16667 20.8452 2.94281 20.8452 2.66667C20.8452 2.39052 20.6214 2.16667 20.3452 2.16667V2.66667V3.16667ZM24.2738 2.16667C23.9977 2.16667 23.7738 2.39052 23.7738 2.66667C23.7738 2.94281 23.9977 3.16667 24.2738 3.16667V2.66667V2.16667ZM28.2024 3.16667C28.4785 3.16667 28.7024 2.94281 28.7024 2.66667C28.7024 2.39052 28.4785 2.16667 28.2024 2.16667V2.66667V3.16667ZM32.131 2.16667C31.8548 2.16667 31.631 2.39052 31.631 2.66667C31.631 2.94281 31.8548 3.16667 32.131 3.16667V2.66667V2.16667ZM36.0595 3.16667C36.3357 3.16667 36.5595 2.94281 36.5595 2.66667C36.5595 2.39052 36.3357 2.16667 36.0595 2.16667V2.66667V3.16667ZM39.9881 2.16667C39.712 2.16667 39.4881 2.39052 39.4881 2.66667C39.4881 2.94281 39.712 3.16667 39.9881 3.16667V2.66667V2.16667ZM43.9167 3.16667C44.1928 3.16667 44.4167 2.94281 44.4167 2.66667C44.4167 2.39052 44.1928 2.16667 43.9167 2.16667V2.66667V3.16667ZM47.8452 2.16667C47.5691 2.16667 47.3452 2.39052 47.3452 2.66667C47.3452 2.94281 47.5691 3.16667 47.8452 3.16667V2.66667V2.16667ZM51.7738 3.16667C52.0499 3.16667 52.2738 2.94281 52.2738 2.66667C52.2738 2.39052 52.0499 2.16667 51.7738 2.16667V2.66667V3.16667ZM55.7024 2.16667C55.4262 2.16667 55.2024 2.39052 55.2024 2.66667C55.2024 2.94281 55.4262 3.16667 55.7024 3.16667V2.66667V2.16667ZM59.6309 3.16667C59.9071 3.16667 60.1309 2.94281 60.1309 2.66667C60.1309 2.39052 59.9071 2.16667 59.6309 2.16667V2.66667V3.16667ZM63.5595 2.16667C63.2834 2.16667 63.0595 2.39052 63.0595 2.66667C63.0595 2.94281 63.2834 3.16667 63.5595 3.16667V2.66667V2.16667ZM67.4881 3.16667C67.7642 3.16667 67.9881 2.94281 67.9881 2.66667C67.9881 2.39052 67.7642 2.16667 67.4881 2.16667V2.66667V3.16667ZM71.4167 2.16667C71.1405 2.16667 70.9167 2.39052 70.9167 2.66667C70.9167 2.94281 71.1405 3.16667 71.4167 3.16667V2.66667V2.16667ZM75.3452 3.16667C75.6214 3.16667 75.8452 2.94281 75.8452 2.66667C75.8452 2.39052 75.6214 2.16667 75.3452 2.16667V2.66667V3.16667ZM79.2738 2.16667C78.9977 2.16667 78.7738 2.39052 78.7738 2.66667C78.7738 2.94281 78.9977 3.16667 79.2738 3.16667V2.66667V2.16667ZM83.2024 3.16667C83.4785 3.16667 83.7024 2.94281 83.7024 2.66667C83.7024 2.39052 83.4785 2.16667 83.2024 2.16667V2.66667V3.16667ZM87.131 2.16667C86.8548 2.16667 86.631 2.39052 86.631 2.66667C86.631 2.94281 86.8548 3.16667 87.131 3.16667V2.66667V2.16667ZM91.0595 3.16667C91.3357 3.16667 91.5595 2.94281 91.5595 2.66667C91.5595 2.39052 91.3357 2.16667 91.0595 2.16667V2.66667V3.16667ZM94.9881 2.16667C94.712 2.16667 94.4881 2.39052 94.4881 2.66667C94.4881 2.94281 94.712 3.16667 94.9881 3.16667V2.66667V2.16667ZM98.9167 3.16667C99.1928 3.16667 99.4167 2.94281 99.4167 2.66667C99.4167 2.39052 99.1928 2.16667 98.9167 2.16667V2.66667V3.16667ZM102.845 2.16667C102.569 2.16667 102.345 2.39052 102.345 2.66667C102.345 2.94281 102.569 3.16667 102.845 3.16667V2.66667V2.16667ZM106.774 3.16667C107.05 3.16667 107.274 2.94281 107.274 2.66667C107.274 2.39052 107.05 2.16667 106.774 2.16667V2.66667V3.16667ZM110.702 2.16667C110.426 2.16667 110.202 2.39052 110.202 2.66667C110.202 2.94281 110.426 3.16667 110.702 3.16667V2.66667V2.16667ZM114.631 3.16667C114.907 3.16667 115.131 2.94281 115.131 2.66667C115.131 2.39052 114.907 2.16667 114.631 2.16667V2.66667V3.16667ZM118.56 2.16667C118.283 2.16667 118.06 2.39052 118.06 2.66667C118.06 2.94281 118.283 3.16667 118.56 3.16667V2.66667V2.16667ZM122.488 3.16667C122.764 3.16667 122.988 2.94281 122.988 2.66667C122.988 2.39052 122.764 2.16667 122.488 2.16667V2.66667V3.16667ZM126.417 2.16667C126.141 2.16667 125.917 2.39052 125.917 2.66667C125.917 2.94281 126.141 3.16667 126.417 3.16667V2.66667V2.16667ZM130.345 3.16667C130.621 3.16667 130.845 2.94281 130.845 2.66667C130.845 2.39052 130.621 2.16667 130.345 2.16667V2.66667V3.16667ZM134.274 2.16667C133.998 2.16667 133.774 2.39052 133.774 2.66667C133.774 2.94281 133.998 3.16667 134.274 3.16667V2.66667V2.16667ZM138.202 3.16667C138.479 3.16667 138.702 2.94281 138.702 2.66667C138.702 2.39052 138.479 2.16667 138.202 2.16667V2.66667V3.16667ZM142.131 2.16667C141.855 2.16667 141.631 2.39052 141.631 2.66667C141.631 2.94281 141.855 3.16667 142.131 3.16667V2.66667V2.16667ZM146.06 3.16667C146.336 3.16667 146.56 2.94281 146.56 2.66667C146.56 2.39052 146.336 2.16667 146.06 2.16667V2.66667V3.16667ZM149.988 2.16667C149.712 2.16667 149.488 2.39052 149.488 2.66667C149.488 2.94281 149.712 3.16667 149.988 3.16667V2.66667V2.16667ZM153.917 3.16667C154.193 3.16667 154.417 2.94281 154.417 2.66667C154.417 2.39052 154.193 2.16667 153.917 2.16667V2.66667V3.16667ZM157.845 2.16667C157.569 2.16667 157.345 2.39052 157.345 2.66667C157.345 2.94281 157.569 3.16667 157.845 3.16667V2.66667V2.16667ZM161.774 3.16667C162.05 3.16667 162.274 2.94281 162.274 2.66667C162.274 2.39052 162.05 2.16667 161.774 2.16667V2.66667V3.16667ZM165.702 2.16667C165.426 2.16667 165.202 2.39052 165.202 2.66667C165.202 2.94281 165.426 3.16667 165.702 3.16667V2.66667V2.16667ZM169.631 3.16667C169.907 3.16667 170.131 2.94281 170.131 2.66667C170.131 2.39052 169.907 2.16667 169.631 2.16667V2.66667V3.16667ZM173.56 2.16667C173.283 2.16667 173.06 2.39052 173.06 2.66667C173.06 2.94281 173.283 3.16667 173.56 3.16667V2.66667V2.16667ZM177.488 3.16667C177.764 3.16667 177.988 2.94281 177.988 2.66667C177.988 2.39052 177.764 2.16667 177.488 2.16667V2.66667V3.16667ZM181.417 2.16667C181.141 2.16667 180.917 2.39052 180.917 2.66667C180.917 2.94281 181.141 3.16667 181.417 3.16667V2.66667V2.16667ZM185.345 3.16667C185.621 3.16667 185.845 2.94281 185.845 2.66667C185.845 2.39052 185.621 2.16667 185.345 2.16667V2.66667V3.16667ZM189.274 2.16667C188.998 2.16667 188.774 2.39052 188.774 2.66667C188.774 2.94281 188.998 3.16667 189.274 3.16667V2.66667V2.16667ZM193.202 3.16667C193.479 3.16667 193.702 2.94281 193.702 2.66667C193.702 2.39052 193.479 2.16667 193.202 2.16667V2.66667V3.16667ZM197.131 2.16667C196.855 2.16667 196.631 2.39052 196.631 2.66667C196.631 2.94281 196.855 3.16667 197.131 3.16667V2.66667V2.16667ZM201.06 3.16667C201.336 3.16667 201.56 2.94281 201.56 2.66667C201.56 2.39052 201.336 2.16667 201.06 2.16667V2.66667V3.16667ZM204.988 2.16667C204.712 2.16667 204.488 2.39052 204.488 2.66667C204.488 2.94281 204.712 3.16667 204.988 3.16667V2.66667V2.16667ZM208.917 3.16667C209.193 3.16667 209.417 2.94281 209.417 2.66667C209.417 2.39052 209.193 2.16667 208.917 2.16667V2.66667V3.16667ZM212.845 2.16667C212.569 2.16667 212.345 2.39052 212.345 2.66667C212.345 2.94281 212.569 3.16667 212.845 3.16667V2.66667V2.16667ZM216.774 3.16667C217.05 3.16667 217.274 2.94281 217.274 2.66667C217.274 2.39052 217.05 2.16667 216.774 2.16667V2.66667V3.16667ZM220.702 2.16667C220.426 2.16667 220.202 2.39052 220.202 2.66667C220.202 2.94281 220.426 3.16667 220.702 3.16667V2.66667V2.16667ZM2.66667 2.66667V3.16667H4.63095V2.66667V2.16667H2.66667V2.66667ZM8.55952 2.66667V3.16667H12.4881V2.66667V2.16667H8.55952V2.66667ZM16.4167 2.66667V3.16667H20.3452V2.66667V2.16667H16.4167V2.66667ZM24.2738 2.66667V3.16667H28.2024V2.66667V2.16667H24.2738V2.66667ZM32.131 2.66667V3.16667H36.0595V2.66667V2.16667H32.131V2.66667ZM39.9881 2.66667V3.16667H43.9167V2.66667V2.16667H39.9881V2.66667ZM47.8452 2.66667V3.16667H51.7738V2.66667V2.16667H47.8452V2.66667ZM55.7024 2.66667V3.16667H59.6309V2.66667V2.16667H55.7024V2.66667ZM63.5595 2.66667V3.16667H67.4881V2.66667V2.16667H63.5595V2.66667ZM71.4167 2.66667V3.16667H75.3452V2.66667V2.16667H71.4167V2.66667ZM79.2738 2.66667V3.16667H83.2024V2.66667V2.16667H79.2738V2.66667ZM87.131 2.66667V3.16667H91.0595V2.66667V2.16667H87.131V2.66667ZM94.9881 2.66667V3.16667H98.9167V2.66667V2.16667H94.9881V2.66667ZM102.845 2.66667V3.16667H106.774V2.66667V2.16667H102.845V2.66667ZM110.702 2.66667V3.16667H114.631V2.66667V2.16667H110.702V2.66667ZM118.56 2.66667V3.16667H122.488V2.66667V2.16667H118.56V2.66667ZM126.417 2.66667V3.16667H130.345V2.66667V2.16667H126.417V2.66667ZM134.274 2.66667V3.16667H138.202V2.66667V2.16667H134.274V2.66667ZM142.131 2.66667V3.16667H146.06V2.66667V2.16667H142.131V2.66667ZM149.988 2.66667V3.16667H153.917V2.66667V2.16667H149.988V2.66667ZM157.845 2.66667V3.16667H161.774V2.66667V2.16667H157.845V2.66667ZM165.702 2.66667V3.16667H169.631V2.66667V2.16667H165.702V2.66667ZM173.56 2.66667V3.16667H177.488V2.66667V2.16667H173.56V2.66667ZM181.417 2.66667V3.16667H185.345V2.66667V2.16667H181.417V2.66667ZM189.274 2.66667V3.16667H193.202V2.66667V2.16667H189.274V2.66667ZM197.131 2.66667V3.16667H201.06V2.66667V2.16667H197.131V2.66667ZM204.988 2.66667V3.16667H208.917V2.66667V2.16667H204.988V2.66667ZM212.845 2.66667V3.16667H216.774V2.66667V2.16667H212.845V2.66667ZM220.702 2.66667V3.16667H222.667V2.66667V2.16667H220.702V2.66667Z" fill="#AFAFAF"/>
</svg>
