<svg preserveAspectRatio="none" overflow="visible" style="display: block;" width="72" height="72" viewBox="0 0 72 72" fill="none" xmlns="http://www.w3.org/2000/svg">
<g id="Pictogramas">
<path id="Vector" d="M48.6658 70.3109C37.0533 70.3109 27.606 60.8627 27.606 49.25C27.606 37.6373 37.0531 28.1902 48.6658 28.1902C60.2785 28.1902 69.7267 37.6373 69.7267 49.25C69.7267 60.8627 60.2785 70.3109 48.6658 70.3109ZM29.242 50.0609C29.6573 60.1353 37.7805 68.2587 47.8551 68.674V65.0002H49.4767V68.674C59.551 68.2587 67.6744 60.1355 68.0898 50.0609H64.416V48.4393H68.0898C67.6744 38.3649 59.5513 30.2415 49.4767 29.8262V33.5H47.8551V29.8262C37.7807 30.2415 29.6573 38.3647 29.242 48.4393H32.9158V50.0609H29.242ZM21.6658 65.8109H3.66576C3.21868 65.8109 2.85598 65.4484 2.85598 65V8.75C2.85598 8.30293 3.21846 7.94023 3.66576 7.94023H11.856V2H13.4753V7.94023H50.1049V2H51.7264V7.94023H59.9155C60.3637 7.94023 60.7264 8.3027 60.7264 8.75V26.75H59.1049V9.55977H51.7264V13.25H50.1049V9.55977H13.4755V13.25H11.8562V9.55977H4.47553V64.1893H21.6658V65.8109ZM55.9672 57.6985L48.0922 49.8235C47.9406 49.6719 47.8549 49.4653 47.8549 49.25V38H49.4764V48.9138L57.1141 56.5515L55.9672 57.6985ZM21.6658 50.0609H12.6658V48.4393H21.6658V50.0609ZM26.1658 36.5598H12.6658V34.9404H26.1658V36.5598ZM50.9158 23.0598H12.6658V21.4404H50.9158V23.0598Z" fill="#B2C7FF"/>
</g>
</svg>
