<svg preserveAspectRatio="none" overflow="visible" style="display: block;" width="72" height="72" viewBox="0 0 72 72" fill="none" xmlns="http://www.w3.org/2000/svg">
<g id="Pictogramas">
<path id="Vector" d="M5 31.9766H38.7236C38.8617 31.9766 38.9736 32.0885 38.9736 32.2266V35.0537C38.9736 35.1918 38.8617 35.3037 38.7236 35.3037H5C4.86193 35.3037 4.75 35.1918 4.75 35.0537V32.2266C4.75 32.0885 4.86193 31.9766 5 31.9766Z" stroke="#668FFF" stroke-width="1.5"/>
<path id="Vector_2" d="M45.9256 18.998H60.2615C61.9214 18.9982 63.3416 19.5445 64.5525 20.6543L64.7918 20.8838C66.0565 22.1485 66.6775 23.6447 66.6775 25.415V43.333C66.6775 44.1604 66.4059 44.8175 65.868 45.3555C65.3282 45.8952 64.6713 46.165 63.8455 46.165H59.5115V68.418C59.5115 69.2453 59.2389 69.9025 58.701 70.4404C58.1612 70.98 57.5042 71.25 56.6785 71.25H49.5125C48.6853 71.25 48.0279 70.9782 47.49 70.4404C46.9503 69.9007 46.6795 69.2437 46.6795 68.418V67.668H46.6756V46.165H42.3406C41.5133 46.165 40.8561 45.8934 40.3181 45.3555C39.7784 44.8157 39.5086 44.1588 39.5086 43.333V25.415L39.5154 25.0859C39.5883 23.458 40.2086 22.0678 41.3933 20.8848L41.3943 20.8838C42.659 19.6192 44.1553 18.998 45.9256 18.998ZM53.0916 1.07812C54.8622 1.07812 56.3608 1.69898 57.6228 2.96289V2.96387C58.8875 4.22855 59.5086 5.72476 59.5086 7.49512C59.5085 9.26562 58.8877 10.7634 57.6238 12.0254L57.6228 12.0264C56.3582 13.2908 54.8618 13.9111 53.0916 13.9111C51.3211 13.911 49.8233 13.2903 48.5613 12.0264L48.3318 11.7861C47.2214 10.5732 46.6756 9.15482 46.6756 7.49512C46.6756 5.72442 47.2963 4.22593 48.5603 2.96387H48.5613C49.8259 1.69938 51.3215 1.07824 53.0916 1.07812Z" stroke="#668FFF" stroke-width="1.5"/>
<path id="Vector_3" d="M11.2934 18.668H25.6313C27.383 18.668 28.8613 19.2775 30.1225 20.5137L30.1616 20.5527C31.4246 21.8178 32.0483 23.3168 32.0483 25.0869V26.4268H4.87445V25.0869C4.87445 23.3144 5.4967 21.8153 6.75922 20.5527C8.02419 19.2899 9.52351 18.668 11.2934 18.668ZM18.4643 0.75C20.2345 0.75 21.7329 1.37314 22.9955 2.63574C24.2582 3.89844 24.8813 5.39473 24.8813 7.16699C24.8812 8.93784 24.2592 10.4301 22.9955 11.7002C21.733 12.9627 20.2344 13.5859 18.4643 13.5859C16.6946 13.5859 15.1964 12.9632 13.934 11.7012H13.935C12.6707 10.4309 12.0483 8.93629 12.0483 7.16699C12.0483 5.39693 12.6706 3.8983 13.933 2.63574C15.1956 1.3732 16.6942 0.750061 18.4643 0.75Z" stroke="#668FFF" stroke-width="1.5"/>
<g id="Group">
<path id="Vector_4" d="M10.9138 57.8688V70.9245H7.23999V57.8688H10.9138Z" stroke="#668FFF" stroke-width="1.5"/>
<path id="Vector_5" d="M15.5001 53.0776C15.3921 53.1856 15.3061 53.3157 15.24 53.4612C15.2995 53.3113 15.3921 53.1812 15.5001 53.0776Z" fill="#668FFF"/>
<path id="Vector_6" d="M23.0404 57.8695V70.9251H13.9232V57.8695H23.0404Z" stroke="#668FFF" stroke-width="1.5"/>
<path id="Vector_7" d="M29.6886 57.8688V70.9245H26.0148V57.8688H29.6886Z" stroke="#668FFF" stroke-width="1.5"/>
<path id="Vector_8" d="M18.4716 53.0776H16.3553C16.0202 53.0776 15.7226 53.2121 15.5022 53.4281C15.3942 53.5361 15.3082 53.6662 15.2421 53.8117C15.1825 53.9528 15.1495 54.1093 15.1495 54.2746V57.4667" stroke="#668FFF" stroke-width="1.5" stroke-linecap="round" stroke-linejoin="round"/>
<path id="Vector_9" d="M21.7877 57.4686V54.2765C21.7877 54.109 21.7547 53.9525 21.6907 53.8136C21.6312 53.6615 21.5452 53.5336 21.4306 53.43C21.349 53.344 21.2587 53.2735 21.155 53.225C21.122 53.2029 21.0845 53.1875 21.047 53.1721C20.9059 53.1125 20.7494 53.0795 20.5885 53.0795H18.4722" stroke="#668FFF" stroke-width="1.5" stroke-linecap="round" stroke-linejoin="round"/>
</g>
</g>
</svg>
